<?xml version="1.0" encoding="iso-8859-1"?>
<!-- Generator: Adobe Illustrator 19.1.0, SVG Export Plug-In . SVG Version: 6.00 Build 0)  -->
<svg version="1.1" id="Capa_1" xmlns="http://www.w3.org/2000/svg" xmlns:xlink="http://www.w3.org/1999/xlink" x="0px" y="0px"
	 viewBox="0 0 209.311 209.311" style="enable-background:new 0 0 209.311 209.311;" xml:space="preserve">
<g>
	<path d="M83.059,209.298l97.328,0.013l0.405-0.006c1.748-0.026,3.515-0.212,5.238-0.566c0.726-0.135,1.427-0.353,2.108-0.578
		l0.945-0.289c0.791-0.219,1.581-0.443,2.397-0.784c0.797-0.341,1.542-0.746,2.275-1.163l0.88-0.469
		c0.63-0.315,1.24-0.643,1.799-1.022c1.607-1.073,3.091-2.288,4.435-3.631c1.311-1.33,2.519-2.802,3.567-4.364
		c0.405-0.623,0.746-1.26,1.073-1.909l0.405-0.746c0.424-0.765,0.848-1.523,1.176-2.32c0.334-0.79,0.572-1.607,0.797-2.416
		l0.296-0.983c0.219-0.668,0.418-1.343,0.553-1.999c0.289-1.459,0.469-2.976,0.533-4.563l0.039-98.446
		c0-7.725-3.001-14.987-8.471-20.45c-5.456-5.456-12.719-8.471-20.45-8.464c-7.719,0-14.987,3.001-20.45,8.464
		c-5.469,5.463-8.471,12.725-8.471,20.45v27.513L49.363,8.459c-11.279-11.279-29.621-11.279-40.9,0s-11.279,29.615,0,40.894
		l102.103,102.103l-27.513,0.006c-7.719,0-14.981,3.001-20.45,8.464c-5.463,5.463-8.471,12.725-8.471,20.457
		c-0.006,7.712,3.001,14.981,8.471,20.45C68.071,206.29,75.34,209.298,83.059,209.298z M66.998,180.384
		c0-4.3,1.665-8.329,4.704-11.363c3.033-3.04,7.076-4.711,11.363-4.704h58.548L17.557,40.266c-6.266-6.266-6.266-16.459,0-22.719
		c6.266-6.266,16.459-6.266,22.719,0l124.051,124.051V83.056c0-4.293,1.671-8.323,4.704-11.363c3.04-3.033,7.07-4.704,11.363-4.704
		c8.599,0,16.061,7.481,16.067,16.067v96.801l-0.019,0.694c-0.013,0.983-0.103,1.986-0.456,3.49l-0.476,1.6
		c-0.09,0.296-0.148,0.591-0.283,0.9c-0.129,0.308-0.302,0.591-0.463,0.874l-1.009,1.889c-0.585,0.88-1.253,1.71-1.999,2.449
		c-0.713,0.72-1.549,1.395-2.873,2.224l-1.459,0.778c-0.302,0.174-0.598,0.36-0.861,0.469c-0.289,0.116-0.598,0.186-0.9,0.276
		l-2.134,0.649c-1.028,0.199-2.069,0.315-3.149,0.315H83.059C74.466,196.451,66.998,188.957,66.998,180.384z"/>
</g>
<g>
</g>
<g>
</g>
<g>
</g>
<g>
</g>
<g>
</g>
<g>
</g>
<g>
</g>
<g>
</g>
<g>
</g>
<g>
</g>
<g>
</g>
<g>
</g>
<g>
</g>
<g>
</g>
<g>
</g>
</svg>
