<?xml version="1.0" encoding="iso-8859-1"?>
<!-- Generator: Adobe Illustrator 19.1.0, SVG Export Plug-In . SVG Version: 6.00 Build 0)  -->
<svg version="1.1" id="Capa_1" xmlns="http://www.w3.org/2000/svg" xmlns:xlink="http://www.w3.org/1999/xlink" x="0px" y="0px"
	 viewBox="0 0 272.08 272.08" style="enable-background:new 0 0 272.08 272.08;" xml:space="preserve">
<g>
	<g>
		<path d="M174.328,233.783c-7.725,0-14.987-3.008-20.45-8.471c-5.463-5.463-8.471-12.719-8.471-20.45s3.014-14.987,8.471-20.45
			l19.454-19.454H28.921C12.976,164.958,0,151.982,0,136.037s12.976-28.921,28.921-28.921h144.405l-19.448-19.448
			c-5.469-5.463-8.471-12.725-8.471-20.45s3.008-14.994,8.471-20.45c5.456-5.463,12.719-8.471,20.444-8.471
			s14.987,3.008,20.457,8.464l69.095,69.095c1.221,1.26,2.346,2.654,3.336,4.132c0.405,0.591,0.765,1.266,1.105,1.947l0.424,0.803
			c0.418,0.726,0.816,1.465,1.138,2.249c0.328,0.778,0.572,1.607,0.797,2.436l0.27,0.9c0.231,0.681,0.443,1.375,0.585,2.095
			c0.366,1.838,0.553,3.74,0.553,5.617c0,1.889-0.186,3.792-0.566,5.662c-0.154,0.778-0.379,1.472-0.611,2.172l-0.193,0.643
			c-0.238,0.893-0.495,1.774-0.861,2.641c-0.296,0.726-0.72,1.51-1.17,2.282l-0.411,0.771c-0.328,0.649-0.668,1.285-1.08,1.896
			c-0.521,0.79-1.099,1.568-1.729,2.32v0.212l-70.689,70.669C189.328,230.768,182.066,233.783,174.328,233.783z M28.921,119.97
			c-8.856,0-16.067,7.211-16.067,16.067c0,8.863,7.211,16.067,16.067,16.067h175.44l-41.395,41.395
			c-3.04,3.04-4.704,7.07-4.704,11.363c0,4.293,1.671,8.323,4.704,11.363c6.086,6.08,16.678,6.061,22.712,0.006l69.23-69.236
			c0.405-0.431,1.041-1.202,1.594-2.031l1.022-1.915c0.154-0.263,0.328-0.521,0.437-0.81c0.174-0.411,0.244-0.739,0.334-1.06
			l0.405-1.362c0.077-0.225,0.161-0.443,0.206-0.675c0.199-1.003,0.309-2.05,0.309-3.078c0-1.06-0.109-2.121-0.315-3.175
			l-0.636-2.057c-0.084-0.309-0.148-0.623-0.276-0.925c-0.129-0.302-0.283-0.54-0.424-0.79l-0.765-1.433
			c-0.617-1.009-1.131-1.71-1.632-2.301l-0.225-0.109l-0.662-0.823l-68.594-68.594c-6.073-6.061-16.665-6.067-22.712,0
			c-3.046,3.04-4.711,7.076-4.711,11.369c0,4.287,1.671,8.323,4.704,11.363l41.402,41.389H28.921V119.97z"/>
	</g>
</g>
<g>
</g>
<g>
</g>
<g>
</g>
<g>
</g>
<g>
</g>
<g>
</g>
<g>
</g>
<g>
</g>
<g>
</g>
<g>
</g>
<g>
</g>
<g>
</g>
<g>
</g>
<g>
</g>
<g>
</g>
</svg>
