<?xml version="1.0" encoding="utf-8"?>
<!-- Generator: Adobe Illustrator 19.1.0, SVG Export Plug-In . SVG Version: 6.00 Build 0)  -->
<svg version="1.1" id="picto" xmlns="http://www.w3.org/2000/svg" xmlns:xlink="http://www.w3.org/1999/xlink" x="0px" y="0px"
	 width="50px" height="50px" viewBox="0 0 360 360" enable-background="new 0 0 360 360" xml:space="preserve">
<g id="picto">
	<g>
		<g>
			<g id="_x32_5_28_">
				<g id="_x32_5_30_">
					<g>
						<g>
							<path fill="#FFFFFF" d="M148.2,146.2c-7-27.1,4.2-54.6,26-69.7c-7.4-0.7-15.1-0.3-22.7,1.7c-34.8,9-55.6,44.5-46.6,79.2
								s44.5,55.6,79.2,46.6c7.6-2,14.5-5.3,20.6-9.5C178.4,191.9,155.2,173.3,148.2,146.2z"/>
						</g>
						<polygon fill="#FFFFFF" points="85.9,226.6 111.1,218.4 85.9,210.2 77.7,185 69.5,210.2 44.3,218.4 69.5,226.6 77.7,251.7
													"/>
					</g>
					<path fill="#FFFFFF" d="M239.3,176.7c-2.1,0-4.2,0.1-6.2,0.3c-13.6-14.1-32.7-22.8-53.8-22.8c-30.8,0-57.2,18.6-68.7,45.1
						c-24.3,0.7-43.8,20.5-43.8,44.9c0,24.9,20.1,45,45,45c6.4,0,12.5-1.4,18-3.8c13.2,11.6,30.5,18.8,49.5,18.8
						c14.4,0,27.9-4.2,39.3-11.2c6.5,2.4,13.4,3.7,20.7,3.7c33.1,0,60-26.9,60-60S272.5,176.7,239.3,176.7z"/>
				</g>
				<g id="_x32_5_29_">
					<g>
						<g>
							<path fill="#FFD400" d="M148.2,146.2c-7-27.1,4.2-54.6,26-69.7c-7.4-0.7-15.1-0.3-22.7,1.7c-34.8,9-55.6,44.5-46.6,79.2
								s44.5,55.6,79.2,46.6c7.6-2,14.5-5.3,20.6-9.5C178.4,191.9,155.2,173.3,148.2,146.2z"/>
						</g>
						<polygon fill="#FFD400" points="85.9,226.6 111.1,218.4 85.9,210.2 77.7,185 69.5,210.2 44.3,218.4 69.5,226.6 77.7,251.7
													"/>
					</g>
					<linearGradient id="SVGID_1_" gradientUnits="userSpaceOnUse" x1="183.0978" y1="304.2428" x2="183.0978" y2="154.2428">
						<stop  offset="0" style="stop-color:#DDDDDD"/>
						<stop  offset="1" style="stop-color:#FFFFFF;stop-opacity:0.8"/>
					</linearGradient>
					<path fill="url(#SVGID_1_)" d="M239.3,176.7c-2.1,0-4.2,0.1-6.2,0.3c-13.6-14.1-32.7-22.8-53.8-22.8
						c-30.8,0-57.2,18.6-68.7,45.1c-24.3,0.7-43.8,20.5-43.8,44.9c0,24.9,20.1,45,45,45c6.4,0,12.5-1.4,18-3.8
						c13.2,11.6,30.5,18.8,49.5,18.8c14.4,0,27.9-4.2,39.3-11.2c6.5,2.4,13.4,3.7,20.7,3.7c33.1,0,60-26.9,60-60
						S272.5,176.7,239.3,176.7z"/>
				</g>
			</g>
		</g>
	</g>
</g>
</svg>
