<?xml version="1.0" encoding="utf-8"?>
<!-- Generator: Adobe Illustrator 19.1.0, SVG Export Plug-In . SVG Version: 6.00 Build 0)  -->
<svg version="1.1" id="picto" xmlns="http://www.w3.org/2000/svg" xmlns:xlink="http://www.w3.org/1999/xlink" x="0px" y="0px"
	 width="50px" height="50px" viewBox="0 0 360 360" enable-background="new 0 0 360 360" xml:space="preserve">
<g id="picto">
	<g>
		<g>
			<g id="_x31_6_28_">
				<g id="_x31_6_30_">
					<path fill="#FFFFFF" d="M195,135c-2.1,0-4.2,0.1-6.2,0.3c-13.6-14.1-32.7-22.8-53.8-22.8c-30.8,0-57.2,18.6-68.7,45.1
						c-24.3,0.7-43.8,20.5-43.8,44.9c0,24.9,20.1,45,45,45c6.4,0,12.5-1.4,18-3.8c13.2,11.6,30.5,18.8,49.5,18.8
						c14.4,0,27.9-4.2,39.3-11.2c6.5,2.4,13.4,3.7,20.7,3.7c33.1,0,60-26.9,60-60S228.1,135,195,135z"/>
					<path fill="#FFFFFF" d="M240,172.5c-2.1,0-4.2,0.1-6.2,0.3C220.2,158.8,201.1,150,180,150c-30.8,0-57.2,18.6-68.7,45.1
						C87,195.7,67.5,215.6,67.5,240c0,24.9,20.1,45,45,45c6.4,0,12.5-1.4,18-3.8C143.7,292.9,161,300,180,300
						c14.4,0,27.9-4.2,39.3-11.2c6.5,2.4,13.4,3.7,20.7,3.7c33.1,0,60-26.9,60-60S273.1,172.5,240,172.5z"/>
					<path fill="#FFFFFF" d="M206.2,264.2c0,14.5-11.8,26.2-26.2,26.2s-26.2-11.8-26.2-26.2c0-14.5,26.2-54.3,26.2-54.3
						S206.2,249.8,206.2,264.2z"/>
					<path fill="#FFFFFF" d="M260.9,235c0,12.7-10.3,23-23,23s-23-10.3-23-23s23-47.5,23-47.5S260.9,222.3,260.9,235z"/>
				</g>
				<g id="_x31_6_29_">
					<linearGradient id="SVGID_1_" gradientUnits="userSpaceOnUse" x1="138.75" y1="262.5" x2="138.75" y2="112.5">
						<stop  offset="0" style="stop-color:#DDDDDD"/>
						<stop  offset="1" style="stop-color:#FFFFFF;stop-opacity:0.8"/>
					</linearGradient>
					<path fill="url(#SVGID_1_)" d="M195,135c-2.1,0-4.2,0.1-6.2,0.3c-13.6-14.1-32.7-22.8-53.8-22.8c-30.8,0-57.2,18.6-68.7,45.1
						c-24.3,0.7-43.8,20.5-43.8,44.9c0,24.9,20.1,45,45,45c6.4,0,12.5-1.4,18-3.8c13.2,11.6,30.5,18.8,49.5,18.8
						c14.4,0,27.9-4.2,39.3-11.2c6.5,2.4,13.4,3.7,20.7,3.7c33.1,0,60-26.9,60-60S228.1,135,195,135z"/>
					<linearGradient id="SVGID_2_" gradientUnits="userSpaceOnUse" x1="183.75" y1="300" x2="183.75" y2="150">
						<stop  offset="0" style="stop-color:#334455"/>
						<stop  offset="1" style="stop-color:#556677;stop-opacity:0.8"/>
					</linearGradient>
					<path fill="url(#SVGID_2_)" d="M240,172.5c-2.1,0-4.2,0.1-6.2,0.3C220.2,158.8,201.1,150,180,150c-30.8,0-57.2,18.6-68.7,45.1
						C87,195.7,67.5,215.6,67.5,240c0,24.9,20.1,45,45,45c6.4,0,12.5-1.4,18-3.8C143.7,292.9,161,300,180,300
						c14.4,0,27.9-4.2,39.3-11.2c6.5,2.4,13.4,3.7,20.7,3.7c33.1,0,60-26.9,60-60S273.1,172.5,240,172.5z"/>
					<linearGradient id="SVGID_3_" gradientUnits="userSpaceOnUse" x1="180" y1="290.5" x2="180" y2="210">
						<stop  offset="0" style="stop-color:#FFFFFF"/>
						<stop  offset="1" style="stop-color:#58D5FF"/>
					</linearGradient>
					<path fill="url(#SVGID_3_)" d="M206.2,264.2c0,14.5-11.8,26.2-26.2,26.2s-26.2-11.8-26.2-26.2c0-14.5,26.2-54.3,26.2-54.3
						S206.2,249.8,206.2,264.2z"/>
					<linearGradient id="SVGID_4_" gradientUnits="userSpaceOnUse" x1="237.9675" y1="257.9375" x2="237.9675" y2="187.5">
						<stop  offset="0" style="stop-color:#FFFFFF"/>
						<stop  offset="1" style="stop-color:#58D5FF"/>
					</linearGradient>
					<path fill="url(#SVGID_4_)" d="M260.9,235c0,12.7-10.3,23-23,23s-23-10.3-23-23s23-47.5,23-47.5S260.9,222.3,260.9,235z"/>
				</g>
			</g>
		</g>
	</g>
</g>
</svg>
