<?xml version="1.0" encoding="utf-8"?>
<!-- Generator: Adobe Illustrator 19.1.0, SVG Export Plug-In . SVG Version: 6.00 Build 0)  -->
<svg version="1.1" id="picto" xmlns="http://www.w3.org/2000/svg" xmlns:xlink="http://www.w3.org/1999/xlink" x="0px" y="0px"
	 width="50px" height="50px" viewBox="0 0 360 360" enable-background="new 0 0 360 360" xml:space="preserve">
<g id="picto">
	<g>
		<g>
			<g id="_x32_3_28_">
				<g id="_x32_3_30_">
					<g>
						<path fill="#FFFFFF" d="M148.9,145c-7-27.1,4.2-54.6,26-69.7c-7.4-0.7-15.1-0.3-22.7,1.7c-34.8,9-55.6,44.5-46.6,79.2
							s44.5,55.6,79.2,46.6c7.6-2,14.5-5.3,20.6-9.5C179.1,190.8,155.9,172.2,148.9,145z"/>
					</g>
					<polygon fill="#FFFFFF" points="86.6,225.4 111.7,217.2 86.6,209 78.4,183.9 70.2,209 45,217.2 70.2,225.4 78.4,250.6 					"/>
				</g>
				<g id="_x32_3_29_">
					<g>
						<path fill="#FFD400" d="M148.9,145c-7-27.1,4.2-54.6,26-69.7c-7.4-0.7-15.1-0.3-22.7,1.7c-34.8,9-55.6,44.5-46.6,79.2
							s44.5,55.6,79.2,46.6c7.6-2,14.5-5.3,20.6-9.5C179.1,190.8,155.9,172.2,148.9,145z"/>
					</g>
					<polygon fill="#FFD400" points="86.6,225.4 111.7,217.2 86.6,209 78.4,183.9 70.2,209 45,217.2 70.2,225.4 78.4,250.6 					"/>
				</g>
			</g>
		</g>
	</g>
</g>
</svg>
