<?xml version="1.0" encoding="utf-8"?>
<!-- Generator: Adobe Illustrator 19.1.0, SVG Export Plug-In . SVG Version: 6.00 Build 0)  -->
<svg version="1.1" id="picto" xmlns="http://www.w3.org/2000/svg" xmlns:xlink="http://www.w3.org/1999/xlink" x="0px" y="0px"
	 width="50px" height="50px" viewBox="0 0 360 360" enable-background="new 0 0 360 360" xml:space="preserve">
<g>
	<circle fill="#FFD400" cx="180" cy="150" r="52.5"/>
	<path fill="#FFD400" d="M180,82.5c-4.1,0-7.5-3.4-7.5-7.5V45c0-4.1,3.4-7.5,7.5-7.5s7.5,3.4,7.5,7.5v30
		C187.5,79.1,184.1,82.5,180,82.5z"/>
	<path fill="#FFD400" d="M180,262.5c-4.1,0-7.5-3.4-7.5-7.5v-30c0-4.1,3.4-7.5,7.5-7.5s7.5,3.4,7.5,7.5v30
		C187.5,259.1,184.1,262.5,180,262.5z"/>
	<path fill="#FFD400" d="M135.9,96.8c-2.3,0-4.6-1.1-6.1-3.1l-17.6-24.3c-2.4-3.4-1.7-8,1.7-10.5c3.4-2.4,8-1.7,10.5,1.7
		L142,84.9c2.4,3.4,1.7,8-1.7,10.5C139,96.4,137.4,96.8,135.9,96.8z"/>
	<path fill="#FFD400" d="M241.7,242.4c-2.3,0-4.6-1.1-6.1-3.1L218,215.1c-2.4-3.4-1.7-8,1.7-10.5c3.4-2.4,8-1.7,10.5,1.7
		l17.6,24.3c2.4,3.4,1.7,8-1.7,10.5C244.8,242,243.3,242.4,241.7,242.4z"/>
	<path fill="#FFD400" d="M108.7,134.3c-0.8,0-1.5-0.1-2.3-0.4l-28.5-9.3c-3.9-1.3-6.1-5.5-4.8-9.5c1.3-3.9,5.5-6.1,9.5-4.8
		l28.5,9.3c3.9,1.3,6.1,5.5,4.8,9.5C114.8,132.3,111.8,134.3,108.7,134.3z"/>
	<path fill="#FFD400" d="M279.9,189.9c-0.8,0-1.5-0.1-2.3-0.4l-28.5-9.3c-3.9-1.3-6.1-5.5-4.8-9.5c1.3-3.9,5.5-6.1,9.5-4.8
		l28.5,9.3c3.9,1.3,6.1,5.5,4.8,9.5C286,187.9,283,189.9,279.9,189.9z"/>
	<path fill="#FFD400" d="M80.1,189.9c-3.2,0-6.1-2-7.1-5.2c-1.3-3.9,0.9-8.2,4.8-9.5l28.5-9.3c3.9-1.3,8.2,0.9,9.5,4.8
		c1.3,3.9-0.9,8.2-4.8,9.5l-28.5,9.3C81.7,189.8,80.9,189.9,80.1,189.9z"/>
	<path fill="#FFD400" d="M251.3,134.3c-3.2,0-6.1-2-7.1-5.2c-1.3-3.9,0.9-8.2,4.8-9.5l28.5-9.3c4-1.3,8.2,0.9,9.5,4.8
		c1.3,3.9-0.9,8.2-4.8,9.5l-28.5,9.3C252.9,134.2,252.1,134.3,251.3,134.3z"/>
	<path fill="#FFD400" d="M118.3,242.4c-1.5,0-3.1-0.5-4.4-1.4c-3.4-2.4-4.1-7.1-1.7-10.5l17.6-24.3c2.4-3.3,7.1-4.1,10.5-1.7
		c3.4,2.4,4.1,7.1,1.7,10.5l-17.6,24.3C122.9,241.4,120.6,242.4,118.3,242.4z"/>
	<path fill="#FFD400" d="M224.1,96.8c-1.5,0-3.1-0.5-4.4-1.4c-3.4-2.4-4.1-7.1-1.7-10.5l17.6-24.3c2.4-3.3,7.1-4.1,10.5-1.7
		c3.4,2.4,4.1,7.1,1.7,10.5l-17.6,24.3C228.7,95.7,226.4,96.8,224.1,96.8z"/>
</g>
</svg>
