<?xml version="1.0" encoding="utf-8"?>
<!-- Generator: Adobe Illustrator 19.1.0, SVG Export Plug-In . SVG Version: 6.00 Build 0)  -->
<svg version="1.1" id="picto" xmlns="http://www.w3.org/2000/svg" xmlns:xlink="http://www.w3.org/1999/xlink" x="0px" y="0px"
	 width="50px" height="50px" viewBox="0 0 360 360" enable-background="new 0 0 360 360" xml:space="preserve">
<g id="picto">
	<g>
		<g>
			<g id="_x34__28_">
				<g id="_x34__30_">
					<g>
						<circle fill="#FFFFFF" cx="180" cy="150" r="52.5"/>
						<path fill="#FFFFFF" d="M180,82.5c-4.1,0-7.5-3.4-7.5-7.5V45c0-4.1,3.4-7.5,7.5-7.5s7.5,3.4,7.5,7.5v30
							C187.5,79.1,184.1,82.5,180,82.5z"/>
						<path fill="#FFFFFF" d="M180,262.5c-4.1,0-7.5-3.4-7.5-7.5v-30c0-4.1,3.4-7.5,7.5-7.5s7.5,3.4,7.5,7.5v30
							C187.5,259.1,184.1,262.5,180,262.5z"/>
						<path fill="#FFFFFF" d="M135.9,96.8c-2.3,0-4.6-1.1-6.1-3.1l-17.6-24.3c-2.4-3.4-1.7-8,1.7-10.5c3.4-2.4,8-1.7,10.5,1.7
							L142,84.9c2.4,3.4,1.7,8-1.7,10.5C139,96.4,137.4,96.8,135.9,96.8z"/>
						<path fill="#FFFFFF" d="M241.7,242.4c-2.3,0-4.6-1.1-6.1-3.1L218,215.1c-2.4-3.4-1.7-8,1.7-10.5c3.4-2.4,8-1.7,10.5,1.7
							l17.6,24.3c2.4,3.4,1.7,8-1.7,10.5C244.8,242,243.3,242.4,241.7,242.4z"/>
						<path fill="#FFFFFF" d="M108.7,134.3c-0.8,0-1.5-0.1-2.3-0.4l-28.5-9.3c-3.9-1.3-6.1-5.5-4.8-9.5c1.3-3.9,5.5-6.1,9.5-4.8
							l28.5,9.3c3.9,1.3,6.1,5.5,4.8,9.5C114.8,132.3,111.8,134.3,108.7,134.3z"/>
						<path fill="#FFFFFF" d="M279.9,189.9c-0.8,0-1.5-0.1-2.3-0.4l-28.5-9.3c-3.9-1.3-6.1-5.5-4.8-9.5c1.3-3.9,5.5-6.1,9.5-4.8
							l28.5,9.3c3.9,1.3,6.1,5.5,4.8,9.5C286,187.9,283,189.9,279.9,189.9z"/>
						<path fill="#FFFFFF" d="M80.1,189.9c-3.2,0-6.1-2-7.1-5.2c-1.3-3.9,0.9-8.2,4.8-9.5l28.5-9.3c3.9-1.3,8.2,0.9,9.5,4.8
							c1.3,3.9-0.9,8.2-4.8,9.5l-28.5,9.3C81.7,189.8,80.9,189.9,80.1,189.9z"/>
						<path fill="#FFFFFF" d="M251.3,134.3c-3.2,0-6.1-2-7.1-5.2c-1.3-3.9,0.9-8.2,4.8-9.5l28.5-9.3c4-1.3,8.2,0.9,9.5,4.8
							c1.3,3.9-0.9,8.2-4.8,9.5l-28.5,9.3C252.9,134.2,252.1,134.3,251.3,134.3z"/>
						<path fill="#FFFFFF" d="M118.3,242.4c-1.5,0-3.1-0.5-4.4-1.4c-3.4-2.4-4.1-7.1-1.7-10.5l17.6-24.3c2.4-3.3,7.1-4.1,10.5-1.7
							c3.4,2.4,4.1,7.1,1.7,10.5l-17.6,24.3C122.9,241.4,120.6,242.4,118.3,242.4z"/>
						<path fill="#FFFFFF" d="M224.1,96.8c-1.5,0-3.1-0.5-4.4-1.4c-3.4-2.4-4.1-7.1-1.7-10.5l17.6-24.3c2.4-3.3,7.1-4.1,10.5-1.7
							c3.4,2.4,4.1,7.1,1.7,10.5l-17.6,24.3C228.7,95.7,226.4,96.8,224.1,96.8z"/>
					</g>
					<path fill="#FFFFFF" d="M111.3,195.1c11.6-26.5,38-45.1,68.7-45.1c21.1,0,40.2,8.8,53.8,22.8c2-0.2,4.1-0.3,6.2-0.3
						c3.8,0,7.4,0.4,11,1c-8.6-22.5-30.4-38.5-56-38.5c-2.1,0-4.2,0.1-6.2,0.3c-13.6-14.1-32.7-22.8-53.8-22.8
						c-30.8,0-57.2,18.6-68.7,45.1c-24.3,0.7-43.8,20.5-43.8,44.9c0,24.9,20.1,45,45,45c0.2,0,0.4,0,0.7,0c-0.4-2.4-0.7-4.9-0.7-7.5
						C67.5,215.6,87,195.7,111.3,195.1z"/>
					<path fill="#FFFFFF" d="M240,172.5c-2.1,0-4.2,0.1-6.2,0.3C220.2,158.8,201.1,150,180,150c-30.8,0-57.2,18.6-68.7,45.1
						C87,195.7,67.5,215.6,67.5,240c0,24.9,20.1,45,45,45c6.4,0,12.5-1.4,18-3.8C143.7,292.9,161,300,180,300
						c14.4,0,27.9-4.2,39.3-11.2c6.5,2.4,13.4,3.7,20.7,3.7c33.1,0,60-26.9,60-60S273.1,172.5,240,172.5z"/>
				</g>
				<g id="_x34__29_">
					<g>
						<circle fill="#FFD400" cx="180" cy="150" r="52.5"/>
						<path fill="#FFD400" d="M180,82.5c-4.1,0-7.5-3.4-7.5-7.5V45c0-4.1,3.4-7.5,7.5-7.5s7.5,3.4,7.5,7.5v30
							C187.5,79.1,184.1,82.5,180,82.5z"/>
						<path fill="#FFD400" d="M180,262.5c-4.1,0-7.5-3.4-7.5-7.5v-30c0-4.1,3.4-7.5,7.5-7.5s7.5,3.4,7.5,7.5v30
							C187.5,259.1,184.1,262.5,180,262.5z"/>
						<path fill="#FFD400" d="M135.9,96.8c-2.3,0-4.6-1.1-6.1-3.1l-17.6-24.3c-2.4-3.4-1.7-8,1.7-10.5c3.4-2.4,8-1.7,10.5,1.7
							L142,84.9c2.4,3.4,1.7,8-1.7,10.5C139,96.4,137.4,96.8,135.9,96.8z"/>
						<path fill="#FFD400" d="M241.7,242.4c-2.3,0-4.6-1.1-6.1-3.1L218,215.1c-2.4-3.4-1.7-8,1.7-10.5c3.4-2.4,8-1.7,10.5,1.7
							l17.6,24.3c2.4,3.4,1.7,8-1.7,10.5C244.8,242,243.3,242.4,241.7,242.4z"/>
						<path fill="#FFD400" d="M108.7,134.3c-0.8,0-1.5-0.1-2.3-0.4l-28.5-9.3c-3.9-1.3-6.1-5.5-4.8-9.5c1.3-3.9,5.5-6.1,9.5-4.8
							l28.5,9.3c3.9,1.3,6.1,5.5,4.8,9.5C114.8,132.3,111.8,134.3,108.7,134.3z"/>
						<path fill="#FFD400" d="M279.9,189.9c-0.8,0-1.5-0.1-2.3-0.4l-28.5-9.3c-3.9-1.3-6.1-5.5-4.8-9.5c1.3-3.9,5.5-6.1,9.5-4.8
							l28.5,9.3c3.9,1.3,6.1,5.5,4.8,9.5C286,187.9,283,189.9,279.9,189.9z"/>
						<path fill="#FFD400" d="M80.1,189.9c-3.2,0-6.1-2-7.1-5.2c-1.3-3.9,0.9-8.2,4.8-9.5l28.5-9.3c3.9-1.3,8.2,0.9,9.5,4.8
							c1.3,3.9-0.9,8.2-4.8,9.5l-28.5,9.3C81.7,189.8,80.9,189.9,80.1,189.9z"/>
						<path fill="#FFD400" d="M251.3,134.3c-3.2,0-6.1-2-7.1-5.2c-1.3-3.9,0.9-8.2,4.8-9.5l28.5-9.3c4-1.3,8.2,0.9,9.5,4.8
							c1.3,3.9-0.9,8.2-4.8,9.5l-28.5,9.3C252.9,134.2,252.1,134.3,251.3,134.3z"/>
						<path fill="#FFD400" d="M118.3,242.4c-1.5,0-3.1-0.5-4.4-1.4c-3.4-2.4-4.1-7.1-1.7-10.5l17.6-24.3c2.4-3.3,7.1-4.1,10.5-1.7
							c3.4,2.4,4.1,7.1,1.7,10.5l-17.6,24.3C122.9,241.4,120.6,242.4,118.3,242.4z"/>
						<path fill="#FFD400" d="M224.1,96.8c-1.5,0-3.1-0.5-4.4-1.4c-3.4-2.4-4.1-7.1-1.7-10.5l17.6-24.3c2.4-3.3,7.1-4.1,10.5-1.7
							c3.4,2.4,4.1,7.1,1.7,10.5l-17.6,24.3C228.7,95.7,226.4,96.8,224.1,96.8z"/>
					</g>
					<linearGradient id="SVGID_1_" gradientUnits="userSpaceOnUse" x1="136.7409" y1="247.5" x2="136.7409" y2="112.5">
						<stop  offset="0" style="stop-color:#DDDDDD"/>
						<stop  offset="1" style="stop-color:#FFFFFF;stop-opacity:0.8"/>
					</linearGradient>
					<path fill="url(#SVGID_1_)" d="M111.3,195.1c11.6-26.5,38-45.1,68.7-45.1c21.1,0,40.2,8.8,53.8,22.8c2-0.2,4.1-0.3,6.2-0.3
						c3.8,0,7.4,0.4,11,1c-8.6-22.5-30.4-38.5-56-38.5c-2.1,0-4.2,0.1-6.2,0.3c-13.6-14.1-32.7-22.8-53.8-22.8
						c-30.8,0-57.2,18.6-68.7,45.1c-24.3,0.7-43.8,20.5-43.8,44.9c0,24.9,20.1,45,45,45c0.2,0,0.4,0,0.7,0c-0.4-2.4-0.7-4.9-0.7-7.5
						C67.5,215.6,87,195.7,111.3,195.1z"/>
					<linearGradient id="SVGID_2_" gradientUnits="userSpaceOnUse" x1="183.75" y1="300" x2="183.75" y2="150">
						<stop  offset="0" style="stop-color:#334455"/>
						<stop  offset="1" style="stop-color:#556677;stop-opacity:0.8"/>
					</linearGradient>
					<path fill="url(#SVGID_2_)" d="M240,172.5c-2.1,0-4.2,0.1-6.2,0.3C220.2,158.8,201.1,150,180,150c-30.8,0-57.2,18.6-68.7,45.1
						C87,195.7,67.5,215.6,67.5,240c0,24.9,20.1,45,45,45c6.4,0,12.5-1.4,18-3.8C143.7,292.9,161,300,180,300
						c14.4,0,27.9-4.2,39.3-11.2c6.5,2.4,13.4,3.7,20.7,3.7c33.1,0,60-26.9,60-60S273.1,172.5,240,172.5z"/>
				</g>
			</g>
		</g>
	</g>
</g>
</svg>
